<?xml version="1.0" standalone="no"?>
<!DOCTYPE svg PUBLIC "-//W3C//DTD SVG 20010904//EN"
 "http://www.w3.org/TR/2001/REC-SVG-20010904/DTD/svg10.dtd">
<svg version="1.0" xmlns="http://www.w3.org/2000/svg"
 width="100.000000pt" height="100.000000pt" viewBox="0 0 100.000000 100.000000"
 preserveAspectRatio="xMidYMid meet">

<g transform="translate(0.000000,100.000000) scale(0.100000,-0.100000)"
fill="#000000" stroke="none">
<path d="M442 978 c-138 -22 -230 -127 -267 -306 -25 -117 3 -211 83 -285 134
-124 155 -155 156 -229 0 -34 -7 -57 -23 -79 -12 -17 -21 -33 -18 -35 7 -8
127 66 169 104 81 73 113 169 89 270 -7 27 -42 99 -77 158 -124 208 -124 311
-1 373 26 13 47 25 45 26 -10 8 -112 10 -156 3z"/>
<path d="M883 719 c-76 -37 -113 -106 -138 -252 -32 -186 -131 -325 -296 -413
-89 -47 -78 -52 83 -35 151 16 228 42 282 94 73 70 79 129 36 315 -11 46 -20
98 -20 116 0 73 45 151 102 179 24 12 28 17 13 17 -11 0 -39 -9 -62 -21z"/>
<path d="M21 462 c-2 -117 79 -215 213 -258 53 -17 85 -39 73 -50 -4 -4 -18
-2 -32 4 -40 18 -63 14 -81 -13 -33 -51 21 -135 88 -135 17 0 28 3 25 7 -4 3
6 14 21 23 83 51 80 205 -4 238 -16 6 -60 23 -99 38 -127 49 -171 86 -191 161
l-13 48 0 -63z"/>
</g>
</svg>
